<svg width="37" height="37" viewBox="0 0 37 37" fill="none" xmlns="http://www.w3.org/2000/svg">
<path fill-rule="evenodd" clip-rule="evenodd" d="M18.5002 34.8697C27.0148 34.8697 33.9168 27.9677 33.9168 19.453C33.9168 10.9384 27.0148 4.03638 18.5002 4.03638C9.98554 4.03638 3.0835 10.9384 3.0835 19.453C3.0835 27.9677 9.98554 34.8697 18.5002 34.8697ZM26.7805 14.5737C26.8526 14.4994 26.909 14.4113 26.9463 14.3147C26.9837 14.2181 27.0012 14.115 26.9978 14.0115C26.9944 13.908 26.9702 13.8063 26.9266 13.7124C26.883 13.6184 26.821 13.5342 26.7441 13.4648C26.6673 13.3954 26.5773 13.3422 26.4794 13.3083C26.3816 13.2745 26.2779 13.2607 26.1746 13.2677C26.0713 13.2748 25.9705 13.3027 25.8782 13.3496C25.7859 13.3965 25.7039 13.4615 25.6373 13.5408L16.4035 23.7443L11.3237 18.895C11.1759 18.7537 10.978 18.6769 10.7736 18.6816C10.5692 18.6862 10.375 18.7718 10.2337 18.9196C10.0925 19.0674 10.0157 19.2653 10.0203 19.4697C10.025 19.6741 10.1106 19.8683 10.2584 20.0096L15.9117 25.4054L16.4844 25.9527L17.0155 25.3653L26.7797 14.5737H26.7805Z" fill="#FF5050"/>
</svg>
