<svg width="34" height="37" viewBox="0 0 34 37" fill="none" xmlns="http://www.w3.org/2000/svg">
<path d="M10.3335 36.5V27.2917C7.52794 27.0695 5.16016 25.9306 3.23016 23.875C1.29905 21.8195 0.333496 19.3611 0.333496 16.5C0.333496 13.4722 1.38239 10.9095 3.48016 8.81169C5.57683 6.71502 8.13905 5.66669 11.1668 5.66669H12.2918L9.66683 3.00002L12.0002 0.666687L18.6668 7.33335L12.0002 14L9.66683 11.6667L12.2918 9.00002H11.1668C9.0835 9.00002 7.31238 9.72891 5.8535 11.1867C4.39572 12.6456 3.66683 14.4167 3.66683 16.5C3.66683 18.5834 4.39572 20.3545 5.8535 21.8134C7.31238 23.2711 9.0835 24 11.1668 24H13.6668V28.4584L18.1252 24H22.8335C24.9168 24 26.6879 23.2711 28.1468 21.8134C29.6046 20.3545 30.3335 18.5834 30.3335 16.5C30.3335 14.4167 29.6046 12.6456 28.1468 11.1867C26.6879 9.72891 24.9168 9.00002 22.8335 9.00002H22.0002V5.66669H22.8335C25.8613 5.66669 28.4241 6.71502 30.5218 8.81169C32.6185 10.9095 33.6668 13.4722 33.6668 16.5C33.6668 19.5278 32.6185 22.0906 30.5218 24.1884C28.4241 26.285 25.8613 27.3334 22.8335 27.3334H19.5002L10.3335 36.5Z" fill="white"/>
</svg>
