<svg width="35" height="36" viewBox="0 0 35 36" fill="none" xmlns="http://www.w3.org/2000/svg">
<path d="M10.6665 35.6667C9.74984 35.6667 8.96539 35.3406 8.31317 34.6884C7.65984 34.035 7.33317 33.25 7.33317 32.3334C7.33317 31.4167 7.65984 30.6317 8.31317 29.9784C8.96539 29.3261 9.74984 29 10.6665 29C11.5832 29 12.3676 29.3261 13.0198 29.9784C13.6732 30.6317 13.9998 31.4167 13.9998 32.3334C13.9998 33.25 13.6732 34.035 13.0198 34.6884C12.3676 35.3406 11.5832 35.6667 10.6665 35.6667ZM27.3332 35.6667C26.4165 35.6667 25.6321 35.3406 24.9798 34.6884C24.3265 34.035 23.9998 33.25 23.9998 32.3334C23.9998 31.4167 24.3265 30.6317 24.9798 29.9784C25.6321 29.3261 26.4165 29 27.3332 29C28.2498 29 29.0348 29.3261 29.6882 29.9784C30.3404 30.6317 30.6665 31.4167 30.6665 32.3334C30.6665 33.25 30.3404 34.035 29.6882 34.6884C29.0348 35.3406 28.2498 35.6667 27.3332 35.6667ZM18.9998 14.8334C18.5276 14.8334 18.1321 14.6734 17.8132 14.3534C17.4932 14.0345 17.3332 13.6389 17.3332 13.1667C17.3332 12.6945 17.4932 12.2984 17.8132 11.9784C18.1321 11.6595 18.5276 11.5 18.9998 11.5C19.4721 11.5 19.8682 11.6595 20.1882 11.9784C20.5071 12.2984 20.6665 12.6945 20.6665 13.1667C20.6665 13.6389 20.5071 14.0345 20.1882 14.3534C19.8682 14.6734 19.4721 14.8334 18.9998 14.8334ZM17.3332 9.00002V0.666687H20.6665V9.00002H17.3332ZM10.6665 27.3334C9.38873 27.3334 8.42373 26.7845 7.7715 25.6867C7.11817 24.59 7.11095 23.5 7.74984 22.4167L9.99984 18.3334L3.99984 5.66669H2.33317C1.86095 5.66669 1.46539 5.50669 1.1465 5.18669C0.826504 4.8678 0.666504 4.47224 0.666504 4.00002C0.666504 3.5278 0.826504 3.13169 1.1465 2.81169C1.46539 2.4928 1.86095 2.33335 2.33317 2.33335H5.08317C5.38873 2.33335 5.68039 2.41669 5.95817 2.58335C6.23595 2.75002 6.44428 2.98613 6.58317 3.29169L13.2082 17.3334H24.9165L30.9165 6.50002C31.0554 6.25002 31.2498 6.04835 31.4998 5.89502C31.7498 5.7428 32.0276 5.66669 32.3332 5.66669C32.9721 5.66669 33.4515 5.93724 33.7715 6.47835C34.0904 7.02058 34.0971 7.56946 33.7915 8.12502L27.8332 18.9167C27.5276 19.4722 27.1176 19.9028 26.6032 20.2084C26.0898 20.5139 25.5276 20.6667 24.9165 20.6667H12.4998L10.6665 24H28.9998C29.4721 24 29.8676 24.1595 30.1865 24.4784C30.5065 24.7984 30.6665 25.1945 30.6665 25.6667C30.6665 26.1389 30.5065 26.5345 30.1865 26.8534C29.8676 27.1734 29.4721 27.3334 28.9998 27.3334H10.6665Z" fill="white"/>
</svg>
