<svg width="34" height="31" viewBox="0 0 34 31" fill="none" xmlns="http://www.w3.org/2000/svg">
<path d="M7.90516 6.13831C10.1242 4.27477 12.8634 3.13999 15.7502 2.88831V5.74998C15.7502 6.0815 15.8819 6.39944 16.1163 6.63386C16.3507 6.86828 16.6686 6.99998 17.0002 6.99998C17.3317 6.99998 17.6496 6.86828 17.884 6.63386C18.1185 6.39944 18.2502 6.0815 18.2502 5.74998V2.88831C21.6338 3.18885 24.7969 4.69493 27.1632 7.13216C29.5294 9.5694 30.9414 12.7756 31.1418 16.1666H28.2502C27.9186 16.1666 27.6007 16.2983 27.3663 16.5328C27.1319 16.7672 27.0002 17.0851 27.0002 17.4166C27.0002 17.7482 27.1319 18.0661 27.3663 18.3005C27.6007 18.5349 27.9186 18.6666 28.2502 18.6666H31.0735C30.6402 22.52 28.7018 25.7466 25.7935 28.1133C25.5362 28.3228 25.3727 28.626 25.339 28.956C25.3052 29.2861 25.404 29.6161 25.6135 29.8733C25.823 30.1306 26.1262 30.2941 26.4562 30.3278C26.7863 30.3616 27.1162 30.2628 27.3735 30.0533C31.0835 27.0316 33.4902 22.73 33.6568 17.5783C33.6679 17.4921 33.6702 17.405 33.6635 17.3183L33.6668 17C33.6668 7.79498 26.2052 0.333313 17.0002 0.333313C7.79516 0.333313 0.333496 7.79498 0.333496 17C0.333496 22.42 2.87183 26.9233 6.61683 30.0433C6.87246 30.2461 7.19728 30.341 7.52188 30.3075C7.84649 30.2741 8.14515 30.115 8.35406 29.8643C8.56297 29.6136 8.66556 29.2912 8.63992 28.9659C8.61428 28.6406 8.46243 28.3382 8.21683 28.1233C5.36683 25.7466 3.3785 22.5116 2.93016 18.6666H5.75016C6.08168 18.6666 6.39963 18.5349 6.63405 18.3005C6.86847 18.0661 7.00016 17.7482 7.00016 17.4166C7.00016 17.0851 6.86847 16.7672 6.63405 16.5328C6.39963 16.2983 6.08168 16.1666 5.75016 16.1666H2.85683C3.04016 13.03 4.24183 10.1666 6.1385 7.90498L8.20016 9.96665C8.43712 10.1874 8.75053 10.3077 9.07437 10.3019C9.3982 10.2962 9.70718 10.165 9.9362 9.93602C10.1652 9.70699 10.2964 9.39802 10.3021 9.07418C10.3078 8.75035 10.1876 8.43694 9.96683 8.19998L7.90516 6.13831ZM24.9335 8.05665C24.7398 7.90748 24.5011 7.82869 24.2566 7.83323C24.0122 7.83778 23.7765 7.92539 23.5885 8.08165L23.2252 8.38665C21.9148 9.48712 20.6086 10.5927 19.3068 11.7033C18.2135 12.6366 17.0952 13.6033 16.2018 14.3916C15.815 14.7316 15.4322 15.0761 15.0535 15.425C14.8063 15.6464 14.5725 15.8824 14.3535 16.1316C14.095 16.4499 13.9031 16.8168 13.789 17.2106C13.675 17.6044 13.6413 18.0171 13.6898 18.4242C13.7383 18.8313 13.868 19.2245 14.0714 19.5805C14.2747 19.9365 14.5475 20.2481 14.8735 20.4966C15.5375 21.0086 16.3748 21.2417 17.2078 21.1465C18.0407 21.0512 18.8039 20.6352 19.3352 19.9866C19.4818 19.8066 19.6768 19.4933 19.8768 19.1583C20.0902 18.8 20.3518 18.3416 20.6418 17.8283C21.2202 16.795 21.9218 15.5083 22.6002 14.2533C23.4058 12.7583 24.2052 11.2599 24.9985 9.75831L25.2168 9.34331C25.329 9.1299 25.3621 8.88368 25.3103 8.64821C25.2584 8.41274 25.125 8.2032 24.9335 8.05665Z" fill="white"/>
</svg>
